<?xml version="1.0" encoding="utf-8"?>
<?xml-stylesheet type="text/xsl" href="rss1.xsl"?>
<rss version="2.0" xmlns:atom="http://www.w3.org/2005/Atom" xmlns:content="http://purl.org/rss/1.0/modules/content/" xmlns:dc="http://purl.org/dc/elements/1.1/" xmlns:media="http://search.yahoo.com/mrss/">
<channel>
 <title>Getty</title>
 <link>http://www.gettyimg.com/</link>
 <atom:link href="http://www.gettyimg.com/" rel="self" type="application/rss+xml" />

 
                <item>
                <title><![CDATA[【Interviews / TV shows / Others】PACK - SpongeBob SquarePants - Clean Rips of Episodes With Dot Crawl]]></title>
                <link><![CDATA[https://sharemania.us/threads/spongebob-squarepants-clean-rips-of-episodes-with-dot-crawl.251107/]]></link>
                <description><![CDATA[<article>
<blockquote class="messageText SelectQuoteContainer ugc baseHtml">
Hi guys, as you may know there a few episodes of SpongeBob SquarePants with video artificing, such as dot crawl and rainbowing, in most of the releases of these episodes.<br>
<br>
The episodes with these issues, even in the 1080p streaming releases, are Nature Pants/Opposite Day, Aargh!/Rock Bottom, Dumped, and Mermaid Man and Barnacle Boy III.<br>
<br>
What I am planning to do is locate a clean version of each of these episodes and release them here: <a href="https://mega.nz/folder/DVF1EBDQ" target="_blank" class="externalLink" rel="nofollow">https://mega.nz/folder/DVF1EBDQ</a><br>
Decryption Key [Base64]: Z0x6M2dES25wZTRlSFU3UHR3Rmc3QQ==<br>
<br>
Nature Pants (From Region 1 DVD release of SB Goes Prehistoric)<br>
Opposite Day (From Region 2 DVD release of Tide And Seek)<br>
Aargh! (Still waiting to get Region 1 DVD release of Fear of a Krabby Patty as I believe it has a clean copy)<br>
Rock Bottom (From Region 2 DVD release of Glove World Forever - No analogue artifacts in this copy, but it still doesn't look the best, if anyone knows a better source please don't mind sharing with me)<br>
Dumped<br>
Mermaid Man and Barnacle Boy III
<div class="messageTextEndMarker">&nbsp;</div>
</blockquote>
</article>]]></description>
                <author><![CDATA[NathBro]]></author>
                </item>

                
                <item>
                <title><![CDATA[【SD】DVD - Eazy-E - Only If You Want It [VOB]]]></title>
                <link><![CDATA[https://sharemania.us/threads/eazy-e-only-if-you-want-it-vob.251112/]]></link>
                <description><![CDATA[<article>
<blockquote class="messageText SelectQuoteContainer ugc baseHtml">
<img src="https://i.imgur.com/Juj5or9.jpg" class="bbCodeImage LbImage" alt="[​IMG]" data-url="https://i.imgur.com/Juj5or9.jpg" style=""> <img src="https://i.imgur.com/db9Seek.png" class="bbCodeImage LbImage" alt="[​IMG]" data-url="https://i.imgur.com/db9Seek.png" style=""> <img src="https://i.imgur.com/nFOk8Fr.png" class="bbCodeImage LbImage" alt="[​IMG]" data-url="https://i.imgur.com/nFOk8Fr.png" style=""> <img src="https://i.imgur.com/2xarSgS.png" class="bbCodeImage LbImage" alt="[​IMG]" data-url="https://i.imgur.com/2xarSgS.png" style=""> <br>
<div class="ToggleTriggerAnchor bbCodeSpoilerContainer">
<button type="button" class="button bbCodeSpoilerButton ToggleTrigger Tooltip JsOnly" data-target="> .SpoilerTarget"><span>Spoiler: <span class="SpoilerTitle">Mediainfo</span></span></button>
<div class="SpoilerTarget bbCodeSpoilerText">
<div class="bbCodeBlock bbCodeCode">
<div class="type">Code:</div>
<pre>General
Complete name                            : G:\Eazy-E\Eazy E - Only If You Want It.vob
Format                                   : MPEG-PS
File size                                : 174 MiB
Duration                                 : 3 min 20 s
Overall bit rate mode                    : Variable
Overall bit rate                         : 7 305 kb/s
Frame rate                               : 29.970 FPS

Video
ID                                       : 224 (0xE0)
Format                                   : MPEG Video
Format version                           : Version 2
Format profile                           : Main@Main
Format settings                          : CustomMatrix / BVOP
Format settings, BVOP                    : Yes
Format settings, Matrix                  : Custom
Format settings, GOP                     : M=2, N=14
Format settings, picture structure       : Frame
Duration                                 : 3 min 20 s
Bit rate mode                            : Variable
Bit rate                                 : 5 176 kb/s
Maximum bit rate                         : 7 500 kb/s
Width                                    : 720 pixels
Height                                   : 480 pixels
Display aspect ratio                     : 4:3
Frame rate                               : 29.970 (30000/1001) FPS
Standard                                 : NTSC
Color space                              : YUV
Chroma subsampling                       : 4:2:0
Bit depth                                : 8 bits
Scan type                                : Interlaced
Scan order                               : Top Field First
Compression mode                         : Lossy
Bits/(Pixel*Frame)                       : 0.500
Time code of first frame                 : 01:31:26:15
Time code source                         : Group of pictures header
GOP, Open/Closed                         : Closed
Stream size                              : 124 MiB (71%)

Audio #1
ID                                       : 189 (0xBD)-129 (0x81)
Format                                   : AC-3
Format/Info                              : Audio Coding 3
Commercial name                          : Dolby Digital
Muxing mode                              : DVD-Video
Duration                                 : 3 min 20 s
Bit rate mode                            : Constant
Bit rate                                 : 448 kb/s
Channel(s)                               : 6 channels
Channel layout                           : L R C LFE Ls Rs
Sampling rate                            : 48.0 kHz
Frame rate                               : 31.250 FPS (1536 SPF)
Compression mode                         : Lossy
Stream size                              : 10.7 MiB (6%)
Service kind                             : Complete Main
Dialog Normalization                     : -31 dB
compr                                    : -0.28 dB
cmixlev                                  : -3.0 dB
surmixlev                                : -3 dB
dialnorm_Average                         : -31 dB
dialnorm_Minimum                         : -31 dB
dialnorm_Maximum                         : -31 dB

Audio #2
ID                                       : 189 (0xBD)-160 (0xA0)
Format                                   : PCM
Format settings                          : Big / Signed
Muxing mode                              : DVD-Video
Duration                                 : 3 min 20 s
Bit rate mode                            : Constant
Bit rate                                 : 1 536 kb/s
Channel(s)                               : 2 channels
Sampling rate                            : 48.0 kHz
Bit depth                                : 16 bits
Stream size                              : 36.6 MiB (21%)

Menu
Format                                   : DVD-Video</pre>
</div></div>
</div>
<div class="bbCodeBlock bbCodeVfcHH HiddenContent">
<div class="attribution type">Hidden Content:</div>
<blockquote>You must either reply or click 'Like' to see the hidden information contained here.</blockquote>
</div>
<div class="messageTextEndMarker">&nbsp;</div>
</blockquote>
</article>]]></description>
                <author><![CDATA[Aituar]]></author>
                </item>

                
                <item>
                <title><![CDATA[【Requests】[REQ VID] - Premios Juventud 2024]]></title>
                <link><![CDATA[https://sharemania.us/threads/premios-juventud-2024.251109/]]></link>
                <description><![CDATA[<article>
<blockquote class="messageText SelectQuoteContainer ugc baseHtml">
These awards are not broadcast in my country and all the fashionable Latin artists come out with different versions
<div class="messageTextEndMarker">&nbsp;</div>
</blockquote>
</article>]]></description>
                <author><![CDATA[Anthony]]></author>
                </item>

                
                <item>
                <title><![CDATA[【SD】DVD - Eazy-E - Only If You Want It [VOB]]]></title>
                <link><![CDATA[https://sharemania.us/threads/eazy-e-only-if-you-want-it-vob.251108/]]></link>
                <description><![CDATA[<article>
<blockquote class="messageText SelectQuoteContainer ugc baseHtml">
Delete
<div class="messageTextEndMarker">&nbsp;</div>
</blockquote>
</article>]]></description>
                <author><![CDATA[Aituar]]></author>
                </item>

                
                <item>
                <title><![CDATA[【Music Videos】Joe Hisaishi - Merry-Go-Round of Life (from “Howl’s Moving Castle”)  [4K VP9 | PCM 24-bit 48 kHz | DD+ Dolby Atmos]]]></title>
                <link><![CDATA[https://sharemania.us/threads/joe-hisaishi-merry-go-round-of-life-from-%E2%80%9Chowl%E2%80%99s-moving-castle%E2%80%9D-4k-vp9-pcm-24-bit-48-khz-dd-dolby-atmos.251106/]]></link>
                <description><![CDATA[<article>
<blockquote class="messageText SelectQuoteContainer ugc baseHtml">
<img src="https://images2.imgbox.com/73/76/vHQx0Q3q_o.jpg" class="bbCodeImage LbImage" alt="[​IMG]" data-url="https://images2.imgbox.com/73/76/vHQx0Q3q_o.jpg" style=""> <br>
<br>
<b>Genre: <span style="color: #0059b3">Classical, Stage &amp; Screen</span><br>
Style: <span style="color: #0059b3">Neo-Romantic, Anison, Soundtrack</span><br>
Year: <span style="color: #0059b3">2023 (Original Soundtrack: 2004)</span><br>
Video Source: <span style="color: #0059b3">YouTube (= the only 4K source that I could find)</span><br>
Audio Source: <span style="color: #0059b3">Qobuz and Apple Music, with help of SonMaxime</span></b><br>
<br>
The music to Studio Ghibli's 2004 Japanese animated fantasy film <i>Howl's Moving Castle</i> (Japanese: ハウルの動く城, Hepburn: <i>Hauru no Ugoku Shiro</i>) directed by Hayao Miyazaki, featured a score composed by Japanese composer, musical director, conductor and pianist Joe Hisaishi, Miyazaki's regular collaborator and was performed by the New Japan Philharmonic orchestra. Hisaishi had introduced several leitfmotifs for the first time, as his previous scores for the Miyazaki and Ghibli ventures did not have leitmotifs. But, the leitmotifs written for the film, led him space for experimenting the themes, and is different from that of Hollywood film music where "the leitmotif appears very clearly and is very easy to remember". His approach to the score was "a kind of international feel" where he could use sophisticated orchestration to reflect the dense orchestral styles associated in Hollywood films.<br>
<br>
The image album to the film's music was released on January 2004, months ahead of the film's release and the score album was unveiled in conjunction with the film. A CD single of the film's theme, preceded the film's soundtrack. In 2020, the soundtracks of <i>Howl's Moving Castle</i> along with <i>Spirited Away</i> (2001), both were issued on vinyl LP, followed by a second re-issue along with the collection of Studio Ghibli soundtracks in 2023.<br>
<br>
On March 30, 2023, Hisaishi signed an exclusive recording agreement with Deutsche Grammophon, even though he released several recordings on the label previously. “<b>Merry-Go-Round of Life</b>”, the main theme from Hayao Miyazaki’ Studio Ghibli favourite Howl’s Moving Castle, is the first fruit of Joe Hisaishi’s new collaboration with Deutsche Grammophon. Recorded in London with the Royal Philharmonic Orchestra, conducted by the composer, the track is newly arranged by Hisaishi for symphony orchestra.<br>
<br>
<b>Release Info</b><br>
The video track is downloaded from YouTube (best source available atm) and left as is.<br>
The PCM track (Qobuz Hi-Res, 24-bit 48 kHz) is synced with Adobe Audition.<br>
The Atmos track is synced by muxing (modified delay, no quality loss).<br>
<br>
<div class="ToggleTriggerAnchor bbCodeSpoilerContainer">
<button type="button" class="button bbCodeSpoilerButton ToggleTrigger Tooltip JsOnly" data-target="> .SpoilerTarget"><span>Spoiler: <span class="SpoilerTitle">Media Info</span></span></button>
<div class="SpoilerTarget bbCodeSpoilerText">
<div class="bbCodeBlock bbCodeCode">
<div class="type">Code:</div>
<pre>General
Unique ID                      : 260347699288073434427419113552364649454 (0xC3DD249BB8B807D47C3C9A5C714B3BEE)
Complete name                  : Joe Hisaishi - Merry-Go-Round of Life (from “Howl’s Moving Castle”).mkv
Format                         : Matroska
Format version                 : Version 4 / Version 2
File size                      : 359 MiB
Duration                       : 2 min 45 s
Overall bit rate               : 18.2 Mb/s
Frame rate                     : 25.000 FPS
Encoded date                   : 2024-07-17 22:54:03 UTC
Writing application            : mkvmerge v85.0 ('Shame For You') 64-bit
Writing library                : libebml v1.4.5 + libmatroska v1.7.1

Video
ID                             : 1
Format                         : VP9
Codec ID                       : V_VP9
Duration                       : 2 min 45 s
Bit rate                       : 15.1 Mb/s
Width                          : 3 840 pixels
Height                         : 2 160 pixels
Display aspect ratio           : 16:9
Frame rate mode                : Constant
Frame rate                     : 25.000 FPS
Bits/(Pixel*Frame)             : 0.073
Stream size                    : 298 MiB (83%)
Language                       : English
Default                        : Yes
Forced                         : No

Audio #1
ID                             : 2
Format                         : PCM
Format settings                : Little / Signed
Codec ID                       : A_PCM/INT/LIT
Duration                       : 2 min 45 s
Bit rate mode                  : Constant
Bit rate                       : 2 304 kb/s
Channel(s)                     : 2 channels
Sampling rate                  : 48.0 kHz
Frame rate                     : 25.003 FPS (1920 SPF)
Bit depth                      : 24 bits
Stream size                    : 45.5 MiB (13%)
Title                          : Lossless 24-bit 48 kHz
Language                       : English
Default                        : Yes
Forced                         : No

Audio #2
ID                             : 3
Format                         : E-AC-3 JOC
Format/Info                    : Enhanced AC-3 with Joint Object Coding
Commercial name                : Dolby Digital Plus with Dolby Atmos
Codec ID                       : A_EAC3
Duration                       : 2 min 45 s
Bit rate mode                  : Constant
Bit rate                       : 768 kb/s
Channel(s)                     : 6 channels
Channel layout                 : L R C LFE Ls Rs
Sampling rate                  : 48.0 kHz
Frame rate                     : 31.250 FPS (1536 SPF)
Compression mode               : Lossy
Stream size                    : 15.1 MiB (4%)
Title                          : Dolby Atmos
Language                       : English
Service kind                   : Complete Main
Default                        : No
Forced                         : No
Complexity index               : 16
Number of dynamic objects      : 15
Bed channel count              : 1 channel
Bed channel configuration      : LFE
Dialog Normalization           : -20 dB
compr                          : 0.53 dB
dmixmod                        : Lo/Ro
ltrtcmixlev                    : -3.0 dB
ltrtsurmixlev                  : -3.0 dB
lorocmixlev                    : -3.0 dB
lorosurmixlev                  : -3.0 dB
dialnorm_Average               : -20 dB
dialnorm_Minimum               : -20 dB
dialnorm_Maximum               : -20 dB
</pre>
</div></div>
</div><br>
<b>Note to the peeps @ RuTracker: Give credit if you post the work of someone else!</b><br>
- Hurby4 aka ADHDerby<br>
<br>
<div class="bbCodeBlock bbCodeVfcHH HiddenContent">
<div class="attribution type">Hidden Content:</div>
<blockquote>You must reply before you can see the hidden data contained here.</blockquote>
</div>
<div class="messageTextEndMarker">&nbsp;</div>
</blockquote>
</article>]]></description>
                <author><![CDATA[ADHDerby]]></author>
                </item>

                
                <item>
                <title><![CDATA[【Requests】[REQ AUD] - Ghost - Rite Here Rite Now Soundtrack (2024) Dolby Atmos mixing]]></title>
                <link><![CDATA[https://sharemania.us/threads/ghost-rite-here-rite-now-soundtrack-2024-dolby-atmos-mixing.251110/]]></link>
                <description><![CDATA[<article>
<blockquote class="messageText SelectQuoteContainer ugc baseHtml">
Thanks
<div class="messageTextEndMarker">&nbsp;</div>
</blockquote>
</article>]]></description>
                <author><![CDATA[Hittman2018]]></author>
                </item>

                
                <item>
                <title><![CDATA[【SD】Eazy-E - Real Compton City G's [VOB]]]></title>
                <link><![CDATA[https://sharemania.us/threads/eazy-e-real-compton-city-gs-vob.251111/]]></link>
                <description><![CDATA[<article>
<blockquote class="messageText SelectQuoteContainer ugc baseHtml">
I know it got released on Atmos mixing on amazon music, so if someone can rip and share plss, i would be very grateful<br>
<br>
(Usually i use glomatico bot on telegram to rip from amazon but my phone its broken so I can't access telegram)
<div class="messageTextEndMarker">&nbsp;</div>
</blockquote>
</article>]]></description>
                <author><![CDATA[Aituar]]></author>
                </item>

                </channel></rss>